<?xml version="1.0" encoding="utf-8"?><svg xmlns="http://www.w3.org/2000/svg" xmlns:xlink="http://www.w3.org/1999/xlink"><symbol viewBox="0 0 18 18" id="svg--check" xmlns="http://www.w3.org/2000/svg"><path d="M16 0H2a2 2 0 0 0-2 2v14a2 2 0 0 0 2 2h14a2 2 0 0 0 2-2V2a2 2 0 0 0-2-2zM7 14L2 9l1.41-1.41L7 11.17l7.59-7.59L16 5l-9 9z"/></symbol><symbol viewBox="0 0 20 18" id="svg--warn" xmlns="http://www.w3.org/2000/svg"><path d="M2.001 17.008h15.06c1.54 0 2.5-1.67 1.73-3L11.261.998c-.77-1.33-2.69-1.33-3.46 0l-7.53 13.01c-.77 1.33.19 3 1.73 3zm7.53-7c-.55 0-1-.45-1-1v-2c0-.55.45-1 1-1s1 .45 1 1v2c0 .55-.45 1-1 1zm1 4h-2v-2h2v2z"/></symbol></svg>